<?xml version="1.0" encoding="UTF-8" standalone="no"?>
<svg
  width="1000"
  height="350"
  viewBox="0 0 1000 350"
  version="1.1"
  xml:space="preserve"
  sodipodi:docname="cycles.svg"
  inkscape:version="1.3.2 (091e20ef0f, 2023-11-25)"
  xmlns:inkscape="http://www.inkscape.org/namespaces/inkscape"
  xmlns:sodipodi="http://sodipodi.sourceforge.net/DTD/sodipodi-0.dtd"
  xmlns="http://www.w3.org/2000/svg"
  xmlns:svg="http://www.w3.org/2000/svg"><defs
  id="defs1" /><sodipodi:namedview
  id="namedview1"
  pagecolor="#ffffff"
  bordercolor="#000000"
  borderopacity="0.25"
  inkscape:showpageshadow="2"
  inkscape:pageopacity="0.0"
  inkscape:pagecheckerboard="0"
  inkscape:deskcolor="#d1d1d1"
  inkscape:zoom="0.93065443"
  inkscape:cx="528.12299"
  inkscape:cy="199.3221"
  inkscape:window-width="1920"
  inkscape:window-height="1011"
  inkscape:window-x="0"
  inkscape:window-y="0"
  inkscape:window-maximized="1"
  inkscape:current-layer="svg1"
/>
  <ellipse
    id="circle1"
    cx="127.00443"
    cy="217.15596"
    rx="104.56412"
    ry="105.93422" />
  <path
    id="triangle1"
    d="m 136.78615,81.734806 -9.78172,17.164432 -9.78172,-17.164432 z"
    class="triangle" />
  
  <ellipse
    id="circle2"
    cy="217.15596"
    cx="375.66568"
    rx="104.56412"
    ry="105.93422" />
  <path
    id="triangle2"
    d="m 385.44741,81.734806 -9.78173,17.164432 -9.78171,-17.164432 z"
    class="triangle" />
  <path
    class="line"
    id="2line"
    d="M 375.66566,111.22177 V 323.09022" />
  
  <ellipse
    id="circle3"
    cy="217.15596"
    cx="624.33429"
    rx="104.56412"
    ry="105.93422" />
  <path
    id="triangle3"
    d="m 634.11611,81.734806 -9.78173,17.164432 -9.78171,-17.164432 z"
    class="triangle" />
  <path
    class="line"
    id="path1"
    d="m 714.8895,270.12308 a 104.56411,105.93422 0 0 1 -126.31822,46.5785 104.56411,105.93422 0 0 1 -67.2125,-117.94089 104.56411,105.93422 0 0 1 102.97554,-87.53893 v 105.93421 z" />
  <path
    id="path13"
    d="m 533.77914,270.12308 a 104.56411,105.93422 0 0 1 0,-105.93422 104.56411,105.93422 0 0 1 90.55518,-52.9671 v 105.93421 z"
    class="line" />
  
  <ellipse
    id="circle9"
    cy="217.15596"
    cx="872.99554"
    rx="104.56412"
    ry="105.93422" />
  <path
    id="path9"
    d="m 882.77735,81.734806 -9.78173,17.164432 -9.78171,-17.164432 z"
    class="triangle" />
  <path
    class="line"
    d="M 872.99558,111.22177 V 323.09022"
    id="path11" />
  <path
    class="line"
    d="M 768.43146,217.15597 H 977.55968"
    id="path12" />
  
<text
   xml:space="preserve"
   x="127.40529"
   y="63.660675"
   id="text3"
   transform="scale(0.99665016,1.0033611)"><tspan
     sodipodi:role="line"
     id="tspan1"
     x="127.40529"
     y="63.660675"
     >hh</tspan></text><text
   xml:space="preserve"
   x="376.90231"
   y="63.660675"
   id="text4"
   transform="scale(0.99665016,1.0033611)"><tspan
     sodipodi:role="line"
     id="tspan3"
     x="376.90231"
     y="63.660675"
     >hh*2</tspan></text><text
   xml:space="preserve"
   x="626.60193"
   y="63.660675"
   id="text5"
   transform="scale(0.99665016,1.0033611)"><tspan
     sodipodi:role="line"
     id="tspan4"
     x="626.60193"
     y="63.660675"
     >hh*3</tspan></text><text
   xml:space="preserve"
   x="876.09894"
   y="63.660675"
   id="text6"
   transform="scale(0.99665016,1.0033611)"><tspan
     sodipodi:role="line"
     id="tspan5"
     x="876.09894"
     y="63.660675"
     >hh*4</tspan></text>
  <style>
    ellipse {
      fill:none;
      stroke:#121212;
      stroke-width:4;
      stroke-dasharray:none;
      stroke-opacity:1;
    }

    .triangle {
      fill:#007D71;
      fill-opacity:1;
      stroke:none;
      stroke-width:2
    }

    .line {
      fill:none;
      stroke:#121212;
      stroke-width:4;
      stroke-dasharray:none;
      stroke-opacity:1"
    }

    text {
      font-size:50px;
      line-height:1;
      font-family:'FiraCode Nerd Font';
      text-align:center;
      text-decoration-color:#000000;
      letter-spacing:0px;
      text-anchor:middle;
      fill:#000000;
    }

    @media (prefers-color-scheme:dark) {
      ellipse, .line {
        stroke:#8C8C8C;
      }

      text {
        fill:#8C8C8C;
      }

      .triangle {
        fill:#9CD3C9;
      }
    }
  </style>
</svg>
