<?xml version="1.0" encoding="UTF-8" standalone="no"?>
<svg
   width="700"
   height="600"
   viewBox="0 0 700 600"
   version="1.1"
   id="svg1"
   xml:space="preserve"
   xmlns="http://www.w3.org/2000/svg"
   xmlns:svg="http://www.w3.org/2000/svg">
  <path
   d="M 350.14323,8.423138 687.38039,591.57686 H 56.473912 L 349.41743,85.103422 621.70768,553.31392 H 122.21665 l 227.30321,-392.69818 206.28842,355.1184 -367.44977,0.0765 161.32261,-279.67025 140.35466,241.32888 H 253.75722 l 96.50665,-166.19806 74.31294,128.66665 -105.22316,-0.0876 25.51655,-41.19259 11.94031,6.7726 -10.80944,19.16389 51.80761,-0.28475 -47.63008,-82.46669 -69.77124,120.5407 183.00183,-0.22782 -113.73827,-195.28371 -134.54878,232.98242 313.9946,0.73022 -179.24103,-309.78775 -201.25765,347.48 446.61767,-0.004 L 349.69506,115.20729 83.626286,576.09928 660.12208,575.68274 350.26276,39.326615 30.575089,591.57477 H 12.61961 Z"
   id="path17"
   style="stroke-width:1" />
  <style
   id="style1">path {fill:#000} @media (prefers-color-scheme:dark) { path {fill:#fff} }</style>
</svg>
