<?xml version="1.0" encoding="UTF-8" standalone="no"?>
<svg
  width="250"
  height="250"
  version="1.1"
  id="svg1"
  viewBox="0 0 250 250"
  xmlns="http://www.w3.org/2000/svg"
  xmlns:svg="http://www.w3.org/2000/svg"
>
  <defs>
    <linearGradient
      x1="25.318438"
      y1="25.31299"
      x2="147.54253"
      y2="147.5388"
      spreadMethod="pad"
      id="linearGradient56"
      gradientTransform="matrix(1.4462781,0,0,-1.446278,0,249.99713)"
      gradientUnits="userSpaceOnUse"
    >
      <stop stop-color="#1a2243" offset="0" />
      <stop stop-color="#46c1b9" offset="0.5" />
      <stop stop-color="#c5115b" offset="1" />
    </linearGradient>
  </defs>
  <path
    fill="url(#linearGradient56)"
    style="fill:url(#linearGradient56);"
    d="m 125.00073,245.49047 v -4.50808 c 64.05943,0 115.98904,-51.93051 115.98904,-115.99106 h 4.50801 c 0,66.5525 -53.94715,120.49914 -120.49705,120.49914 z M 40.569194,124.99133 h -4.497886 c 0,-49.117479 39.812797,-88.92952 88.929422,-88.92952 v 4.508088 c -46.626156,0 -84.425751,37.795912 -84.425751,84.421432 h 9.004449 c 0,41.65461 33.767406,75.42116 75.421302,75.42116 v 4.50953 c 44.14436,0 79.92207,-35.78557 79.92207,-79.93069 h 4.50946 c 0,46.6313 -37.80104,84.433 -84.43153,84.433 -46.626156,0 -84.431536,-37.8017 -84.431536,-84.433 z m 84.431536,70.7829 c 39.094,0 70.78168,-31.68822 70.78168,-70.7829 h -4.38363 c 0,36.67069 -29.72799,66.40498 -66.39805,66.40498 v -4.50808 c 34.18393,0 61.89582,-27.71093 61.89582,-61.8969 0,-34.135354 -27.76251,-61.908473 -61.89582,-61.908473 v 4.519658 c -31.693465,0 -57.387818,25.694799 -57.387818,57.388815 h -4.51958 c 0,-34.19176 27.716232,-61.908473 61.907398,-61.908473 v -8.89758 c -39.105576,0 -70.804823,31.699798 -70.804823,70.806053 h -4.604909 c 0,-41.648834 33.767407,-75.411042 75.409732,-75.411042 v 4.604989 c 39.17354,0 70.78168,31.637607 70.78168,70.806053 h 4.63239 c 0,41.65461 -33.76163,75.41537 -75.41407,75.41537 z m 52.87836,-70.7829 h 4.50801 c 0,31.69401 -25.69291,57.38881 -57.38637,57.38881 v -4.50954 c 29.20733,0 52.87836,-23.67722 52.87836,-52.87927 z m -52.87836,48.45652 v -4.5645 c 24.24085,0 43.88982,-19.6493 43.88982,-43.89202 h 4.56586 c 0,26.76216 -21.69399,48.45652 -48.45568,48.45652 z M 81.121032,124.99133 h -4.513795 c 0,-26.727454 21.665057,-48.394333 48.393493,-48.394333 v 4.513873 c -24.23074,0 -43.879698,19.6493 -43.879698,43.88046 z m 9.021804,0 c 0,-19.24869 15.609544,-34.8585 34.857894,-34.8585 v -4.344657 c 21.73881,0 39.25743,17.463957 39.25743,39.203157 0,21.68279 -17.57502,39.25811 -39.25743,39.25811 v -4.39528 c -19.25414,0 -34.863679,-15.60981 -34.863679,-34.86283 z m -67.595557,0 c 0,-56.586123 45.874096,-102.45523 102.453451,-102.45523 56.6748,0 102.45778,45.77799 102.45778,102.45523 0,56.5919 -45.86686,102.46679 -102.45778,102.46679 v -4.50953 c 54.099,0 97.95556,-43.85732 97.95556,-97.95726 h -4.50801 c 0,51.60943 -41.83468,93.44917 -93.44755,93.44917 v -4.50809 c 49.1224,0 88.93954,-39.81782 88.93954,-88.94108 h 4.50801 c 0,-51.693322 -41.74935,-93.489674 -93.44755,-93.489674 v -4.457468 c -54.094671,0 -97.945441,43.852977 -97.945441,97.947142 z m -13.5196897,0 C 9.0275893,60.942347 60.952859,9.0161758 125.00073,9.0161758 V 13.52571 c -61.563186,0 -111.470916,49.902811 -111.470916,111.46562 z m 227.4483907,0 c 0,61.56859 -49.90773,111.47718 -111.47525,111.47718 v -4.5023 c 59.0756,0 106.96724,-47.89681 106.96724,-106.97488 z m 13.5139,0 C 249.98988,55.959876 194.03098,1.6469403e-7 125.00073,1.6469403e-7 55.969029,1.6469403e-7 0.01157012,55.959876 0.01157012,124.99133 H 0 c 0,69.03723 55.963244,125.00868 125.00073,125.00868 69.03603,0 124.99928,-55.97145 124.99928,-125.00868 h -0.0101"
  />
</svg>
