<?xml version="1.0" encoding="UTF-8" standalone="no"?>
<svg
   width="700"
   height="700"
   id="svg2"
   version="1.1"
   xmlns:inkscape="http://www.inkscape.org/namespaces/inkscape"
   xmlns:sodipodi="http://sodipodi.sourceforge.net/DTD/sodipodi-0.dtd"
   xmlns="http://www.w3.org/2000/svg"
   xmlns:svg="http://www.w3.org/2000/svg">
  <g
     id="layer1"
     transform="translate(-14.687465,-141.96314)">
    <path
       id="path3068"
       style="fill:#3ea639;fill-opacity:1;fill-rule:nonzero;stroke:#1e541e;stroke-width:19.2122;stroke-linecap:round;stroke-linejoin:round;stroke-miterlimit:4;stroke-dasharray:none;stroke-opacity:1"
       d="m 398.40437,595.27818 c 40.32082,-14.97419 61.36968,-43.81349 61.36968,-93.44762 0,-49.63413 -41.82527,-93.37059 -94.0866,-93.45552 -55.14896,-0.0896 -96.75182,43.64 -96.0866,93.45552 0.66523,49.81551 24.42164,82.95509 62.44642,94.93898 L 264.68924,762.47972 C 174.536,739.14196 82.84508,632.78774 82.84508,501.83056 c 0,-155.10914 124.63284,-280.84993 280.84238,-280.84993 156.20954,0 282.84239,125.74079 282.84239,280.84993 0,132.99462 -90.82075,237.8649 -182.89748,261.11527 z"
       sodipodi:nodetypes="czssccssscc" />
    <g
       transform="matrix(0.6218844,0,0,0.6218844,741.3993,442.86307)"
       style="fill:#000000"
       id="registered_trademark">
      <path
         id="letter_r"
         d="m -185.04297,486.45963 c 1.52341,0.51565 2.99997,1.61721 4.42969,3.30468 1.45309,1.68752 2.90621,4.00783 4.35937,6.96094 l 7.20704,14.34375 h -7.62891 l -6.71484,-13.46484 c -1.73441,-3.51561 -3.42191,-5.84764 -5.0625,-6.9961 -1.61722,-1.14841 -3.83206,-1.72263 -6.64454,-1.72265 h -7.73437 V 511.069 h -7.10156 v -52.48828 h 16.03125 c 5.99997,5e-5 10.47653,1.25396 13.42968,3.76172 2.95309,2.50786 4.42965,6.29301 4.42969,11.35547 -4e-5,3.30472 -0.77348,6.0469 -2.32031,8.22656 -1.52348,2.17971 -3.75004,3.69143 -6.67969,4.53516 m -17.78906,-22.04297 v 18.63281 h 8.92969 c 3.42184,3e-5 5.99997,-0.78513 7.73437,-2.35547 1.75778,-1.59372 2.63669,-3.92575 2.63672,-6.99609 -3e-5,-3.07027 -0.87894,-5.37887 -2.63672,-6.92578 -1.7344,-1.57027 -4.31253,-2.35543 -7.73437,-2.35547 h -8.92969"
      />
    </g>
    <ellipse
       style="fill:none;stroke-width:7.52412;stroke-linecap:round;stroke-linejoin:round;stroke-miterlimit:4;stroke-dasharray:none;stroke-opacity:1"
       id="registered_circle"
       transform="matrix(0.53989074,0,0,0.51641718,738.70955,538.65137)"
       cx="-217.00662"
       cy="399.40475"
       rx="42.626301"
       ry="44.563862" />
  </g>
  <style>
    #letter_r {fill:#000}
    #registered_circle {stroke: #000}
    @media (prefers-color-scheme:dark){
      #letter_r {fill:#fff}
      #registered_circle {stroke: #fff}
    }
  </style>
</svg>
